<svg viewBox="0 0 471 60" xmlns="http://www.w3.org/2000/svg" xmlns:xlink="http://www.w3.org/1999/xlink" width="471.000000" height="60.000000" fill="none" customFrame="#000000">
	<path id="The Dragon News" d="M45.5391 7.88086L46.623 8.64258C46.2129 10.5371 45.6465 12.0312 44.9238 13.125C44.2207 14.2188 43.1758 15.0879 41.7891 15.7324C40.4219 16.3574 38.8398 16.6699 37.043 16.6699C36.0859 16.6699 34.9238 16.6113 33.5566 16.4941L33.5566 46.1133C36.5254 45.2148 38.8887 44.0625 40.6465 42.6562C42.4043 41.2305 44.0352 39.1895 45.5391 36.5332L46.623 37.0605C45.7637 39.6777 44.7676 41.7773 43.6348 43.3594C41.8184 45.918 39.4746 47.9492 36.6035 49.4531C33.7324 50.9375 30.4121 51.6797 26.6426 51.6797C22.9707 51.6797 19.5332 50.9766 16.3301 49.5703C14.4746 48.75 12.7754 47.5977 11.2324 46.1133C9.68945 44.6289 8.41992 42.832 7.42383 40.7227C6.44727 38.6133 5.95898 36.2207 5.95898 33.5449C5.95898 30.8496 6.49609 28.2715 7.57031 25.8105C8.64453 23.3496 10.2266 20.9961 12.3164 18.75C13.6445 17.3438 15.5195 15.791 17.9414 14.0918L14.25 13.8867C12.8828 13.8086 11.3691 14.1016 9.70898 14.7656C8.04883 15.4102 6.75 16.2793 5.8125 17.373C4.89453 18.4668 4.09375 20.0977 3.41016 22.2656L2.32617 21.6211C2.99023 18.8477 3.84961 16.6895 4.9043 15.1465C6.31055 13.0957 8.16602 11.5137 10.4707 10.4004C12.7754 9.26758 15.4023 8.70117 18.3516 8.70117C20.4023 8.70117 24.0254 9.13086 29.2207 9.99023C34.416 10.8496 37.9902 11.2793 39.9434 11.2793C41.252 11.2793 42.248 11.084 42.9316 10.6934C43.6348 10.2832 44.5039 9.3457 45.5391 7.88086ZM21.2227 14.3848L19.6699 14.2383C17.0527 16.4844 15.1289 18.7305 13.8984 20.9766C12.2383 24.0039 11.4082 27.1191 11.4082 30.3223C11.4082 35.791 13.6543 40.2539 18.1465 43.7109C19.5723 42.5195 20.4414 41.5527 20.7539 40.8105C21.0664 40.0684 21.2227 38.5547 21.2227 36.2695L21.2227 14.3848ZM32.209 16.2305C30.3535 15.9766 28.7129 15.7031 27.2871 15.4102L27.2871 32.9297C27.2871 34.9805 27.1992 36.2891 27.0234 36.8555C26.8672 37.4023 26.4863 38.0273 25.8809 38.7305C24.7871 39.9414 22.5996 41.8555 19.3184 44.4727C20.959 45.2734 22.2871 45.8105 23.3027 46.084C25.0605 46.5527 26.75 46.7871 28.3711 46.7871C29.2305 46.7871 30.5098 46.6797 32.209 46.4648L32.209 16.2305ZM61.4473 9.69727L61.7402 10.4004C60.3535 11.2988 59.4062 12.2559 58.8984 13.2715C58.3906 14.2871 58.1367 15.8984 58.1367 18.1055L58.1367 27.6562L67.1895 20.4492C69.123 21.6992 70.3828 22.9102 70.9688 24.082C71.5547 25.2344 71.8477 27.207 71.8477 30L71.8477 43.2715C71.8477 45.8105 71.584 47.666 71.0566 48.8379C70.2168 50.752 68.6641 52.5488 66.3984 54.2285C63.4297 56.4551 59.6504 58.3789 55.0605 60L54.6504 58.916C58.3809 57.373 60.9785 55.9668 62.4434 54.6973C63.9082 53.4277 64.8652 52.0801 65.3145 50.6543C65.6465 49.5801 65.8125 46.7871 65.8125 42.2754L65.8125 30C65.8125 28.6328 65.6758 27.6855 65.4023 27.1582C64.9922 26.4355 64.2402 25.7227 63.1465 25.0195L58.1367 29.0918L58.1367 45.4102L60.2168 47.4902L55.0605 51.6797L49.8457 47.4902L52.1602 45.1758L52.1602 18.5156C52.1602 16.0938 51.9453 14.4336 51.5156 13.5352C51.0859 12.6367 50.2363 11.8262 48.9668 11.1035L49.2891 10.4004C50.3242 10.6934 51.1543 11.0254 51.7793 11.3965C52.4043 11.748 53.2246 12.373 54.2402 13.2715C55.4316 12.1387 56.5742 11.3086 57.668 10.7812C58.7617 10.2539 60.0215 9.89258 61.4473 9.69727ZM89.4551 20.4492L97.7168 30.0879L84.5918 39.2871L84.5918 44.6191L91.3887 47.3145L95.9883 44.1797L96.6328 45.0586L87.1406 51.6797C85.207 50.6445 83.6152 49.9023 82.3652 49.4531C81.1152 49.0039 79.3379 48.5352 77.0332 48.0469L77.0332 47.3145C77.6973 46.9238 78.1367 46.4453 78.3516 45.8789C78.5859 45.293 78.7031 44.043 78.7031 42.1289L78.7031 25.3711C80.5391 24.707 82.0625 24.1016 83.2734 23.5547C84.1523 23.1445 86.2129 22.1094 89.4551 20.4492ZM85.002 23.8184L84.5918 24.0234L84.5918 37.2949L92.2969 31.9043L85.002 23.8184ZM114.914 8.17383L116.291 8.17383C116.604 9.15039 117.121 9.84375 117.844 10.2539C118.781 10.8008 120.305 11.0742 122.414 11.0742C123.762 11.0742 128.039 10.9375 135.246 10.6641C139.602 10.4883 142.316 10.4004 143.391 10.4004C146.633 10.4004 149.387 10.957 151.652 12.0703C153.938 13.1836 155.793 14.8926 157.219 17.1973C158.645 19.502 159.592 22.6758 160.061 26.7188C160.393 29.5508 160.676 35.791 160.91 45.4395C157.102 47.8418 154.172 49.9219 152.121 51.6797C145.91 49.9414 140.432 49.0723 135.686 49.0723C132.463 49.0723 129.475 49.4629 126.721 50.2441C123.967 51.0059 121.047 52.2363 117.961 53.9355L117.111 52.8223C121.115 50.752 124.631 48.6328 127.658 46.4648C130.686 44.2969 132.678 42.3633 133.635 40.6641C134.611 38.9453 135.1 36.7676 135.1 34.1309C135.1 33.1738 135.08 31.7578 135.041 29.8828C135.002 28.5742 134.982 27.2168 134.982 25.8105C134.982 23.3301 135.119 21.5039 135.393 20.332C135.686 19.1602 136.291 17.8125 137.209 16.2891L136.447 16.2891C134.064 17.6562 132.473 18.9062 131.672 20.0391C130.891 21.1523 130.5 22.5781 130.5 24.3164L130.734 34.7168C130.734 37.4902 129.904 39.9805 128.244 42.1875C126.584 44.375 122.6 47.5391 116.291 51.6797L115.441 50.5371C118.625 48.3105 120.725 46.4844 121.74 45.0586C122.756 43.6328 123.264 42.1387 123.264 40.5762C123.264 39.2285 122.834 38.0859 121.975 37.1484C121.115 36.1914 120.168 35.7129 119.133 35.7129C118.605 35.7129 118.117 35.8594 117.668 36.1523C117.219 36.4453 116.613 37.0508 115.852 37.9688L114.914 37.0312C115.578 35.3516 116.457 34.1211 117.551 33.3398C118.664 32.5586 119.992 32.168 121.535 32.168C121.984 32.168 122.473 32.2168 123 32.3145C123.547 32.4121 124.133 32.5586 124.758 32.7539C124.719 31.6211 124.699 30.6348 124.699 29.7949C124.699 26.7285 125.314 24.2383 126.545 22.3242C127.795 20.3906 130.178 18.3789 133.693 16.2891C130.471 16.6211 127.688 16.7871 125.344 16.7871C122.863 16.7871 120.734 16.4355 118.957 15.7324C117.629 15.1855 116.652 14.3164 116.027 13.125C115.402 11.9141 115.031 10.2637 114.914 8.17383ZM138.645 16.2891C137.805 17.7148 137.238 18.9551 136.945 20.0098C136.555 21.4551 136.359 22.8027 136.359 24.0527L136.594 35.5957C136.594 37.0801 136.223 38.5938 135.48 40.1367C134.914 41.2891 133.85 42.6953 132.287 44.3555C135.139 43.8867 137.316 43.6621 138.82 43.6816L140.49 43.7109L140.49 16.2891L138.645 16.2891ZM141.984 27.5391C143.176 28.3789 144.211 28.9551 145.09 29.2676C145.988 29.5801 146.955 29.7363 147.99 29.7363C149.025 29.7363 149.992 29.5801 150.891 29.2676C151.789 28.9355 152.844 28.3594 154.055 27.5391C153.684 23.1445 152.551 20.1758 150.656 18.6328C148.762 17.0703 145.871 16.2891 141.984 16.2891L141.984 27.5391ZM141.984 37.207C143.312 36.4453 144.445 35.9277 145.383 35.6543C146.32 35.3613 147.346 35.2148 148.459 35.2148C149.533 35.2148 150.529 35.3516 151.447 35.625C152.365 35.8789 153.469 36.3672 154.758 37.0898L154.26 29.1504C153.01 29.9121 151.926 30.4395 151.008 30.7324C150.109 31.0059 149.123 31.1426 148.049 31.1426C147.014 31.1426 145.988 30.9766 144.973 30.6445C143.957 30.3125 142.961 29.8145 141.984 29.1504L141.984 37.207ZM141.984 43.7988C144.367 43.9941 146.301 44.2383 147.785 44.5312C149.289 44.8047 151.633 45.3906 154.816 46.2891C154.855 43.3398 154.875 41.8164 154.875 41.7188C154.875 41.4844 154.855 40.5469 154.816 38.9062C153.566 38.0469 152.463 37.4512 151.506 37.1191C150.568 36.7871 149.543 36.6211 148.43 36.6211C147.297 36.6211 146.242 36.7871 145.266 37.1191C144.309 37.4512 143.215 38.0469 141.984 38.9062L141.984 43.7988ZM182.854 20.4492L187.277 25.752L182.854 29.6777L179.162 25.0195L176.262 27.6562L176.262 44.7363L179.602 47.1387L182.619 44.7363L183.293 45.6738L175.793 51.6797C174.191 50.2539 172.844 49.2285 171.75 48.6035C170.676 47.9785 169.494 47.4902 168.205 47.1387L168.205 46.4941C169.064 45.8887 169.621 45.2832 169.875 44.6777C170.148 44.0527 170.285 42.8711 170.285 41.1328L170.285 29.1797C170.285 27.6758 170.109 26.6797 169.758 26.1914C169.426 25.6836 169.055 25.4297 168.645 25.4297C168.195 25.4297 167.58 25.8203 166.799 26.6016L166.096 25.752L172.277 20.4492C173.938 21.7188 175.07 22.8223 175.676 23.7598C176.066 24.3457 176.262 25.1562 176.262 26.1914L182.854 20.4492ZM211.271 21.709L212.326 22.1191C211.271 23.7598 210.598 25.0195 210.305 25.8984C210.031 26.7578 209.895 27.9297 209.895 29.4141L209.895 41.8945C209.895 43.9648 210.051 45.2637 210.363 45.791C210.695 46.2988 211.086 46.5527 211.535 46.5527C211.77 46.5527 212.014 46.4941 212.268 46.377C212.424 46.2793 212.883 45.9277 213.645 45.3223L214.289 46.2891L207.756 51.6797C206.252 50.5078 205.246 49.4629 204.738 48.5449C204.23 47.6074 203.947 46.3086 203.889 44.6484L194.982 51.6797C191.643 48.9453 189.973 46.25 189.973 43.5938C189.973 41.8164 190.334 40.1465 191.057 38.584C192.014 36.5332 193.664 34.1406 196.008 31.4062L192.492 23.9062L192.902 23.0859C193.664 23.1641 194.23 23.2031 194.602 23.2031C196.906 23.2031 198.938 22.2852 200.695 20.4492C202.121 21.2891 203.674 21.9629 205.354 22.4707C207.053 22.9785 208.352 23.2324 209.25 23.2324C209.66 23.2324 209.973 23.1641 210.188 23.0273C210.402 22.8711 210.764 22.4316 211.271 21.709ZM203.889 27.3047L193.869 24.2285L197.443 31.7871L203.889 34.8047L203.889 27.3047ZM203.889 36.0059L196.799 32.6953C195.705 35.0781 195.158 37.168 195.158 38.9648C195.158 42.1289 196.594 44.7363 199.465 46.7871L203.889 43.2129L203.889 36.0059ZM230.109 20.4492L239.221 24.7266L244.67 21.9727L244.67 28.5645L239.396 27.5391L239.396 40.8398C239.396 42.9883 239.523 44.4434 239.777 45.2051C240.109 46.2012 240.803 47.3535 241.857 48.6621C243.557 50.8301 244.406 52.3828 244.406 53.3203C244.406 54.2578 243.957 55.1562 243.059 56.0156C242.18 56.875 239.816 58.2031 235.969 60C234.66 59.5312 233.41 59.1797 232.219 58.9453C231.027 58.7305 229.895 58.623 228.82 58.623C226.242 58.623 223.264 59.082 219.885 60L219.475 59.0039L226.389 50.918L219.475 45.9375L219.475 24.7266C223.342 23.9062 226.887 22.4805 230.109 20.4492ZM233.449 27.4805L225.422 24.7266L225.422 43.916L229.787 47.0801L233.449 42.6855L233.449 27.4805ZM224.631 54.6973C227.17 54.2871 229.221 54.082 230.783 54.082C232.189 54.082 233.605 54.2676 235.031 54.6387C236.477 55.0098 237.932 55.5762 239.396 56.3379L240.598 55.5762C237.961 53.1152 236.174 51.123 235.236 49.5996C234.299 48.0762 233.703 46.416 233.449 44.6191L224.631 54.6973ZM269.045 24.7266L269.045 46.6406C266.115 47.832 263.996 48.8086 262.688 49.5703C261.691 50.1367 260.734 50.8398 259.816 51.6797C256.984 49.9609 254.641 48.7695 252.785 48.1055C251.379 47.5977 249.787 47.3047 248.01 47.2266L247.717 46.6406C248.459 46.0156 248.928 45.4492 249.123 44.9414C249.396 44.2773 249.533 43.1543 249.533 41.5723L249.533 25.4883C253.107 24.2969 256.164 22.6172 258.703 20.4492C261.477 22.2852 264.924 23.7109 269.045 24.7266ZM255.451 43.7988L263.098 46.9336L263.098 28.3008C260.695 27.1875 258.996 26.4551 258 26.1035C257.297 25.8496 256.447 25.6348 255.451 25.459L255.451 43.7988ZM292.658 20.4492L297.463 24.9316L300.305 22.1777L301.125 22.9688C299.758 24.2188 298.928 25.166 298.635 25.8105C298.244 26.6699 298.049 27.8516 298.049 29.3555L298.049 43.2715C298.049 44.5605 298.254 45.5176 298.664 46.1426C298.918 46.5527 299.201 46.7578 299.514 46.7578C299.787 46.7578 300.432 46.377 301.447 45.6152L302.15 46.5234L295.852 51.6797C294.23 50.4492 293.186 49.3652 292.717 48.4277C292.268 47.4707 292.043 45.9375 292.043 43.8281L292.043 27.6855L288.85 24.9316L284.104 28.7109L284.104 45.3809L286.213 47.4902L281.027 51.6797L275.812 47.4902L278.098 45.3809L278.098 30.4102C278.098 28.2812 277.883 26.8457 277.453 26.1035C277.16 25.5957 276.828 25.3418 276.457 25.3418C276.066 25.3418 275.48 25.6445 274.699 26.25L273.996 25.4297L280.236 20.4492C281.955 21.6602 283.029 22.6172 283.459 23.3203C283.889 24.0234 284.104 25 284.104 26.25L284.104 27.2461L292.658 20.4492ZM357.17 7.29492C360.588 8.13477 363.254 9.16992 365.168 10.4004C367.746 12.0605 369.699 14.0918 371.027 16.4941C372.375 18.8965 373.049 21.4551 373.049 24.1699C373.049 26.084 372.717 27.9883 372.053 29.8828C371.408 31.7773 370.344 33.8672 368.859 36.1523C368.332 36.9727 365.773 40.4395 361.184 46.5527C363.527 45.5176 365.881 45 368.244 45C369.26 45 370.119 45.0781 370.822 45.2344C371.545 45.3711 372.092 45.4395 372.463 45.4395C372.795 45.4395 373.098 45.293 373.371 45C373.664 44.6875 374.299 43.5938 375.275 41.7188L376.682 42.2461L371.643 51.6797C368.986 50.7812 366.789 50.332 365.051 50.332C363.078 50.332 361.457 50.7129 360.188 51.4746C358.918 52.2363 357.688 53.5645 356.496 55.459L355.324 54.873C355.988 52.8809 357.18 50.4004 358.898 47.4316C361.73 42.5684 363.85 38.584 365.256 35.4785C363.479 34.3066 361.857 33.4766 360.393 32.9883C358.928 32.4805 357.375 32.2266 355.734 32.2266C354.367 32.2266 353.078 32.4023 351.867 32.7539C350.676 33.0859 349.27 33.7012 347.648 34.5996L347.648 39.7559C347.648 42.9004 347.482 45.1465 347.15 46.4941C346.838 47.8418 346.115 49.2188 344.982 50.625C343.869 52.0117 342.424 53.1641 340.646 54.082C338.889 55.0195 337.062 55.4883 335.168 55.4883C334.406 55.4883 333.654 55.4102 332.912 55.2539C332.482 55.1758 331.252 54.834 329.221 54.2285C327.209 53.6426 326.076 53.3203 325.822 53.2617C325.275 53.1641 324.689 53.1152 324.064 53.1152C323.146 53.1152 322.326 53.2422 321.604 53.4961C320.9 53.75 320.061 54.209 319.084 54.873L318.264 54.1406C320.256 50.6055 322.961 48.8379 326.379 48.8379C327.766 48.8379 329.562 49.082 331.77 49.5703C333.117 49.8633 334.035 50.0098 334.523 50.0098C335.578 50.0098 336.486 49.5898 337.248 48.75C338.01 47.8906 338.391 46.7871 338.391 45.4395C338.391 43.7207 337.795 42.2754 336.604 41.1035C335.432 39.9316 333.986 39.3457 332.268 39.3457C331.135 39.3457 329.924 39.8242 328.635 40.7812L327.814 40.0488C328.693 38.9551 329.562 38.1738 330.422 37.7051C331.281 37.2168 332.248 36.9727 333.322 36.9727C333.947 36.9727 334.592 37.0801 335.256 37.2949C335.939 37.5098 336.643 37.832 337.365 38.2617C337.033 36.543 336.447 35.2246 335.607 34.3066C334.143 32.7051 332.307 31.9043 330.1 31.9043C329.162 31.9043 328.391 32.002 327.785 32.1973C327.316 32.3535 326.73 32.6953 326.027 33.2227L325.324 32.1973C326.379 31.123 327.346 30.3809 328.225 29.9707C329.104 29.541 330.07 29.3262 331.125 29.3262C332.023 29.3262 332.854 29.4629 333.615 29.7363C334.377 29.9902 335.402 30.5469 336.691 31.4062C336.691 29.8242 336.428 28.5742 335.9 27.6562C335.393 26.7188 334.484 25.8691 333.176 25.1074C331.887 24.3457 330.627 23.9648 329.396 23.9648C328.283 23.9648 327.16 24.3555 326.027 25.1367L325.324 24.1699C326.203 23.2129 327.023 22.5586 327.785 22.207C328.742 21.7188 329.777 21.4746 330.891 21.4746C331.848 21.4746 332.736 21.6211 333.557 21.9141C334.377 22.1875 335.422 22.7441 336.691 23.584L336.691 17.0508L357.17 7.29492ZM347.648 23.0566C349.504 24.1309 351.105 24.8828 352.453 25.3125C353.801 25.7227 355.207 25.9277 356.672 25.9277C358.332 25.9277 359.904 25.6641 361.389 25.1367C362.893 24.6094 364.641 23.6719 366.633 22.3242C365.539 19.5312 363.684 17.2949 361.066 15.6152C358.449 13.916 355.51 13.0664 352.248 13.0664C350.861 13.0664 349.328 13.3203 347.648 13.8281L347.648 23.0566ZM346.301 14.2383L342.727 15.9961L342.727 41.2207C342.727 44.1504 342.434 46.2402 341.848 47.4902C341.262 48.7402 340.129 49.9414 338.449 51.0938C340.461 50.9375 341.916 50.5371 342.814 49.8926C344.143 48.9551 345.051 47.8125 345.539 46.4648C346.047 45.0977 346.301 42.7734 346.301 39.4922L346.301 14.2383ZM347.648 33.0176C349.367 32.1973 350.822 31.6309 352.014 31.3184C353.225 31.0059 354.523 30.8496 355.91 30.8496C357.668 30.8496 359.299 31.1035 360.803 31.6113C362.326 32.1191 363.967 32.9688 365.725 34.1602C366.271 32.7734 366.682 31.4453 366.955 30.1758C367.229 28.9062 367.365 27.6953 367.365 26.543C367.365 25.7227 367.258 24.7949 367.043 23.7598C364.895 25.127 363.059 26.0645 361.535 26.5723C360.031 27.0801 358.459 27.334 356.818 27.334C355.393 27.334 353.986 27.1387 352.6 26.748C351.213 26.3379 349.562 25.625 347.648 24.6094L347.648 33.0176ZM393.967 20.4492L402.229 30.0879L389.104 39.2871L389.104 44.6191L395.9 47.3145L400.5 44.1797L401.145 45.0586L391.652 51.6797C389.719 50.6445 388.127 49.9023 386.877 49.4531C385.627 49.0039 383.85 48.5352 381.545 48.0469L381.545 47.3145C382.209 46.9238 382.648 46.4453 382.863 45.8789C383.098 45.293 383.215 44.043 383.215 42.1289L383.215 25.3711C385.051 24.707 386.574 24.1016 387.785 23.5547C388.664 23.1445 390.725 22.1094 393.967 20.4492ZM389.514 23.8184L389.104 24.0234L389.104 37.2949L396.809 31.9043L389.514 23.8184ZM427.57 27.5098L436.271 20.4492C438.088 21.7578 439.27 22.9199 439.816 23.9355C440.578 25.3027 440.959 26.8945 440.959 28.7109L440.959 46.4648C438.908 47.1094 437.18 47.8223 435.773 48.6035C434.367 49.3848 432.941 50.4102 431.496 51.6797C428.195 49.5898 425.441 48.5449 423.234 48.5449C421.164 48.5449 419.094 49.5898 417.023 51.6797C415.09 50.0781 413.234 48.9258 411.457 48.2227C409.699 47.5 407.775 47.0801 405.686 46.9629L405.686 46.2598C406.564 45.9082 407.18 45.4102 407.531 44.7656C407.902 44.1016 408.088 42.8223 408.088 40.9277L408.088 29.8242C408.088 28.0859 408.029 27.0312 407.912 26.6602C407.814 26.2695 407.502 25.7715 406.975 25.166C406.135 24.1895 405.568 23.3594 405.275 22.6758C404.982 21.9727 404.836 21.1719 404.836 20.2734C404.836 18.6328 405.344 17.1973 406.359 15.9668C407.375 14.7168 409.162 13.4668 411.721 12.2168L412.248 12.9785C410.139 14.4434 409.084 15.8691 409.084 17.2559C409.084 17.7441 409.201 18.2031 409.436 18.6328C409.553 18.8477 410.266 19.6777 411.574 21.123C412.453 22.0801 413.127 23.1445 413.596 24.3164C413.869 25.0195 414.055 26.0254 414.152 27.334L422.678 20.4492C424.24 21.4844 425.393 22.5586 426.135 23.6719C426.896 24.7852 427.375 26.0645 427.57 27.5098ZM414.152 28.7988L414.152 43.7988L421.535 46.875L421.535 30.9082C421.535 29.2285 421.359 28.0469 421.008 27.3633C420.656 26.6797 419.855 25.9375 418.605 25.1367L414.152 28.7988ZM427.57 29.0039L427.57 43.6523L435.012 46.7871L435.012 30.498C435.012 29.0527 434.865 28.0664 434.572 27.5391C434.299 26.9922 433.488 26.2012 432.141 25.166L427.57 29.0039ZM460.852 31.3184L467.619 34.8633L467.619 47.1973C465.979 47.3535 464.494 47.7539 463.166 48.3984C461.838 49.043 460.334 50.1367 458.654 51.6797C457.209 50.8203 455.949 50.2246 454.875 49.8926C453.82 49.5605 452.697 49.3945 451.506 49.3945C449.67 49.3945 448.039 49.9512 446.613 51.0645C446.086 51.4746 445.705 51.6797 445.471 51.6797C445.256 51.6797 445.041 51.5723 444.826 51.3574C444.611 51.1426 444.504 50.9277 444.504 50.7129C444.504 50.4785 444.709 50.166 445.119 49.7754C445.354 49.541 445.754 49.0918 446.32 48.4277L448.986 45.1172L452.766 40.1074L446.35 36.6504L446.35 25.7227C448.361 25.0977 449.934 24.4043 451.066 23.6426C452.219 22.8613 453.322 21.7969 454.377 20.4492C456.877 21.5039 458.889 22.2461 460.412 22.6758C461.506 22.9688 462.551 23.1152 463.547 23.1152C464.641 23.1152 465.49 22.8809 466.096 22.4121C466.701 21.9238 467.004 21.416 467.004 20.8887C467.004 20.5371 466.809 20.1855 466.418 19.834C465.656 19.1504 465.275 18.4863 465.275 17.8418C465.275 17.2363 465.441 16.7578 465.773 16.4062C466.105 16.0352 466.477 15.8496 466.887 15.8496C467.434 15.8496 467.922 16.1035 468.352 16.6113C468.801 17.0996 469.025 17.7539 469.025 18.5742C469.025 19.4141 468.85 20.2344 468.498 21.0352C468.146 21.8359 467.473 22.8711 466.477 24.1406L460.852 31.3184ZM452.268 33.3398L456.281 35.4199L462.668 26.9238C461.359 27.2949 460.227 27.4805 459.27 27.4805C456.867 27.4805 454.533 26.6797 452.268 25.0781L452.268 33.3398ZM457.307 36.0059L450.246 45.4688C451.105 45.1758 451.906 44.9609 452.648 44.8242C453.391 44.6875 454.064 44.6191 454.67 44.6191C456.916 44.6191 459.25 45.3613 461.672 46.8457L461.672 38.3496L457.307 36.0059Z" fill="rgb(68,68,68)" fill-rule="nonzero" />
</svg>
